<svg data-v-fde0c5aa="" xmlns="http://www.w3.org/2000/svg" viewBox="0 0 300 300" class="font"><!----><defs data-v-fde0c5aa=""><!----></defs><rect data-v-fde0c5aa="" fill="transparent" x="0" y="0" width="300px" height="300px" class="logo-background-square"></rect><defs data-v-fde0c5aa=""><linearGradient data-v-fde0c5aa="" gradientTransform="rotate(25)" id="dd2434d4-89d7-4367-8e66-b1412fec872a" x1="0%" y1="0%" x2="100%" y2="0%"><stop data-v-fde0c5aa="" offset="0%" stop-color="#3796FF" stop-opacity="1"></stop><stop data-v-fde0c5aa="" offset="100%" stop-color="#5C738D" stop-opacity="1"></stop></linearGradient></defs><g data-v-fde0c5aa="" id="589e9320-14fb-49b8-8302-6dd473f1994d" fill="url(#dd2434d4-89d7-4367-8e66-b1412fec872a)" transform="matrix(3.913013219833374,0,0,3.913013219833374,37.53908149795039,103.72403251580629)"><path d="M5.29 12.87L5.29 12.87Q4.86 14.25 4.28 15.26L4.28 15.26L4.28 15.26Q3.71 16.27 3.09 16.80L3.09 16.80L3.09 16.80Q2.48 17.33 1.92 17.33L1.92 17.33L1.92 17.33Q0.63 17.33 0.63 14.69L0.63 14.69L0.63 14.69Q0.63 13.06 1.02 11.46L1.02 11.46L1.02 11.46Q1.41 9.86 1.89 8.71L1.89 8.71L1.89 8.71Q2.03 8.34 2.25 8.13L2.25 8.13L2.25 8.13Q2.48 7.91 2.88 7.91L2.88 7.91L2.88 7.91Q3.26 7.91 3.49 8.10L3.49 8.10L3.49 8.10Q3.71 8.29 3.71 8.67L3.71 8.67L3.70 8.83L3.70 8.83Q3.70 8.86 3.53 9.30L3.53 9.30L3.53 9.30Q3.11 10.43 2.78 11.47L2.78 11.47L2.78 11.47Q2.45 12.50 2.37 13.44L2.37 13.44L2.37 13.44Q2.32 13.92 2.32 14.38L2.32 14.38L2.32 14.38Q2.32 14.84 2.42 15.13L2.42 15.13L2.42 15.13Q2.52 15.41 2.70 15.41L2.70 15.41L2.70 15.41Q3.11 15.41 3.69 14.25L3.69 14.25L3.69 14.25Q4.27 13.08 4.80 11.45L4.80 11.45L4.80 11.45Q5.33 9.81 5.59 8.58L5.59 8.58L5.59 8.58Q5.64 8.32 5.91 8.13L5.91 8.13L5.91 8.13Q6.17 7.95 6.37 7.95L6.37 7.95L6.37 7.95Q6.72 7.95 6.88 8.13L6.88 8.13L6.88 8.13Q7.04 8.30 7.04 8.67L7.04 8.67L7.03 8.86L7.03 8.86Q7.03 8.92 7 9.02L7 9.02L7 9.02Q6.97 9.11 6.94 9.27L6.94 9.27L6.94 9.27Q6.27 12.46 6.13 14.03L6.13 14.03L6.13 14.03Q6.12 14.14 6.12 14.36L6.12 14.36L6.12 14.36Q6.12 14.84 6.25 15.13L6.25 15.13L6.25 15.13Q6.38 15.41 6.59 15.41L6.59 15.41L6.59 15.41Q7.28 15.41 7.98 13.28L7.98 13.28L7.98 13.28Q8.68 11.14 9.23 8.54L9.23 8.54L9.23 8.54Q9.28 8.29 9.47 8.17L9.47 8.17L9.47 8.17Q9.66 8.05 9.93 8.05L9.93 8.05L9.93 8.05Q10.26 8.05 10.61 8.19L10.61 8.19L10.61 8.19Q10.96 8.33 10.96 8.50L10.96 8.50L10.74 9.48L10.74 9.48Q10.22 11.77 9.70 13.40L9.70 13.40L9.70 13.40Q9.17 15.02 8.32 16.18L8.32 16.18L8.32 16.18Q7.48 17.33 6.27 17.33L6.27 17.33L6.27 17.33Q5.10 17.33 5.10 15.18L5.10 15.18L5.10 15.18Q5.10 14.18 5.35 12.87L5.35 12.87L5.29 12.87ZM13.62 17.37L13.62 17.37Q12.25 17.37 11.62 16.83L11.62 16.83L11.62 16.83Q10.99 16.28 10.99 15.37L10.99 15.37L10.99 15.37Q10.99 14.04 11.66 12.91L11.66 12.91L11.66 12.91Q12.32 11.77 13.43 11.11L13.43 11.11L13.43 11.11Q14.55 10.44 15.83 10.44L15.83 10.44L15.83 10.44Q16.62 10.44 17.15 10.89L17.15 10.89L17.15 10.89Q17.68 11.33 17.68 12.18L17.68 12.18L17.68 12.18Q17.68 12.67 17.37 12.99L17.37 12.99L17.37 12.99Q17.05 13.30 16.46 13.55L16.46 13.55L16.46 13.55Q15.88 13.79 14.56 14.24L14.56 14.24L14.56 14.24Q13.37 14.63 12.63 14.90L12.63 14.90L12.63 14.90Q12.57 15.11 12.57 15.33L12.57 15.33L12.57 15.33Q12.57 15.72 12.90 15.93L12.90 15.93L12.90 15.93Q13.23 16.14 13.83 16.14L13.83 16.14L13.83 16.14Q14.21 16.14 14.70 15.99L14.70 15.99L14.70 15.99Q15.19 15.83 15.32 15.60L15.32 15.60L15.32 15.60Q15.79 14.73 16.18 14.73L16.18 14.73L16.18 14.73Q16.76 14.73 16.96 14.95L16.96 14.95L16.96 14.95Q17.16 15.16 17.18 15.43L17.18 15.43L17.18 15.43Q17.01 15.88 16.52 16.33L16.52 16.33L16.52 16.33Q16.03 16.79 15.27 17.08L15.27 17.08L15.27 17.08Q14.52 17.37 13.62 17.37L13.62 17.37ZM13.02 13.61L13.02 13.61Q14.41 13.16 15.30 12.78L15.30 12.78L15.30 12.78Q16.20 12.39 16.20 12.01L16.20 12.01L16.20 12.01Q16.20 11.84 16.02 11.74L16.02 11.74L16.02 11.74Q15.83 11.63 15.62 11.63L15.62 11.63L15.62 11.63Q15.20 11.63 14.67 11.96L14.67 11.96L14.67 11.96Q14.13 12.28 13.66 12.74L13.66 12.74L13.66 12.74Q13.20 13.20 13.02 13.61L13.02 13.61ZM19.84 16.44L19.84 16.44Q19.75 16.63 19.71 16.79L19.71 16.79L19.71 16.79Q19.59 17.11 19.49 17.26L19.49 17.26L19.49 17.26Q19.39 17.40 19.18 17.40L19.18 17.40L18.79 17.42L18.79 17.42Q18.44 17.42 18.23 17.27L18.23 17.27L18.23 17.27Q18.02 17.12 17.99 16.67L17.99 16.67L17.99 16.67Q18.00 16.66 18.13 16.36L18.13 16.36L18.13 16.36Q18.26 16.06 18.38 15.54L18.38 15.54L18.38 15.54Q18.55 14.85 18.72 14.18L18.72 14.18L18.72 14.18Q18.89 13.51 19.04 12.88L19.04 12.88L19.04 12.88Q19.25 12.05 19.66 10.41L19.66 10.41L19.66 10.41Q20.06 8.76 20.29 7.80L20.29 7.80L20.29 7.80Q20.27 7.59 20.26 7.22L20.26 7.22L20.26 7.22Q20.24 6.85 20.24 6.64L20.24 6.64L20.24 6.64Q20.29 6.45 20.56 6.34L20.56 6.34L20.56 6.34Q20.83 6.23 21.06 6.23L21.06 6.23L21.06 6.23Q21.41 6.23 21.78 6.47L21.78 6.47L21.78 6.47Q22.16 6.71 22.18 7.04L22.18 7.04L21.13 11.19L21.13 11.19Q21.50 10.75 22.04 10.58L22.04 10.58L22.04 10.58Q22.58 10.40 23.04 10.40L23.04 10.40L23.04 10.40Q23.70 10.40 24.23 10.78L24.23 10.78L24.23 10.78Q24.75 11.16 25.05 11.78L25.05 11.78L25.05 11.78Q25.35 12.40 25.35 13.09L25.35 13.09L25.35 13.09Q25.35 14.10 24.88 15.07L24.88 15.07L24.88 15.07Q24.40 16.04 23.49 16.67L23.49 16.67L23.49 16.67Q22.58 17.29 21.36 17.29L21.36 17.29L21.36 17.29Q21.01 17.29 20.50 17.04L20.50 17.04L20.50 17.04Q19.99 16.79 19.84 16.44L19.84 16.44ZM20.17 15.27L20.17 15.27Q20.36 15.60 20.72 15.85L20.72 15.85L20.72 15.85Q21.08 16.10 21.38 16.10L21.38 16.10L21.38 16.10Q22.04 16.10 22.58 15.52L22.58 15.52L22.58 15.52Q23.13 14.94 23.45 14.13L23.45 14.13L23.45 14.13Q23.77 13.33 23.77 12.68L23.77 12.68L23.77 12.68Q23.77 12.24 23.53 11.94L23.53 11.94L23.53 11.94Q23.30 11.65 22.83 11.65L22.83 11.65L22.83 11.65Q22.43 11.65 21.97 11.83L21.97 11.83L21.97 11.83Q21.50 12.01 21.15 12.36L21.15 12.36L21.15 12.36Q20.79 12.70 20.66 13.15L20.66 13.15L20.17 15.27ZM33.24 15.97L33.24 15.97Q33.40 16.00 33.63 16.28L33.63 16.28L33.63 16.28Q33.85 16.56 33.85 16.80L33.85 16.80L33.85 16.80Q33.85 16.95 33.61 17.04L33.61 17.04L33.61 17.04Q33.53 17.07 33.34 17.14L33.34 17.14L33.34 17.14Q33.15 17.22 33.00 17.25L33.00 17.25L33.00 17.25Q32.84 17.28 32.65 17.28L32.65 17.28L32.65 17.28Q32.35 17.28 32.20 17.21L32.20 17.21L32.20 17.21Q31.81 17.04 31.18 16.42L31.18 16.42L31.18 16.42Q30.55 15.81 29.96 15.02L29.96 15.02L29.96 15.02Q29.37 14.22 29.09 13.54L29.09 13.54L29.01 13.54L29.01 13.54Q28.62 13.54 28.43 13.52L28.43 13.52L28.43 13.52Q28.01 15.08 27.73 16.24L27.73 16.24L27.73 16.24Q27.62 16.73 27.39 17.00L27.39 17.00L27.39 17.00Q27.16 17.26 26.64 17.26L26.64 17.26L26.64 17.26Q26.21 17.26 26.01 17.12L26.01 17.12L26.01 17.12Q25.80 16.97 25.80 16.62L25.80 16.62L25.80 16.62Q25.80 16.46 25.84 16.32L25.84 16.32L27.54 9.79L27.54 9.79Q26.81 10.00 26.43 10.36L26.43 10.36L26.43 10.36Q26.28 10.19 26.19 9.92L26.19 9.92L26.19 9.92Q26.10 9.65 26.10 9.38L26.10 9.38L26.10 9.38Q26.10 9.18 26.22 9.07L26.22 9.07L26.22 9.07Q26.33 8.95 26.54 8.85L26.54 8.85L26.54 8.85Q26.61 8.81 27.06 8.60L27.06 8.60L27.06 8.60Q27.50 8.39 27.90 8.27L27.90 8.27L27.90 8.27Q28.03 7.99 28.29 7.81L28.29 7.81L28.29 7.81Q28.55 7.63 28.95 7.63L28.95 7.63L28.95 7.63Q29.19 7.63 29.34 7.72L29.34 7.72L29.34 7.72Q29.50 7.81 29.55 7.95L29.55 7.95L29.55 7.95Q30.07 7.78 30.80 7.78L30.80 7.78L30.80 7.78Q31.70 7.78 32.36 8.14L32.36 8.14L32.36 8.14Q33.03 8.50 33.38 9.06L33.38 9.06L33.38 9.06Q33.73 9.62 33.73 10.19L33.73 10.19L33.73 10.19Q33.73 11.47 32.91 12.23L32.91 12.23L32.91 12.23Q32.09 12.99 30.80 13.31L30.80 13.31L30.80 13.31Q31.09 13.82 31.58 14.45L31.58 14.45L31.58 14.45Q32.07 15.08 32.52 15.52L32.52 15.52L32.52 15.52Q32.96 15.96 33.10 15.96L33.10 15.96L33.24 15.97ZM29.40 9.41L29.40 9.41Q28.99 11.03 28.73 12.22L28.73 12.22L28.73 12.22Q28.90 12.24 29.20 12.24L29.20 12.24L29.20 12.24Q29.88 12.24 30.55 12.03L30.55 12.03L30.55 12.03Q31.22 11.83 31.68 11.42L31.68 11.42L31.68 11.42Q32.13 11.02 32.13 10.42L32.13 10.42L32.13 10.42Q32.13 9.87 31.68 9.54L31.68 9.54L31.68 9.54Q31.23 9.21 30.48 9.21L30.48 9.21L30.48 9.21Q30.06 9.21 29.40 9.41L29.40 9.41ZM42.14 7.62L42.14 7.62Q42.64 7.88 42.64 8.29L42.64 8.29L42.64 8.29Q42.64 8.54 42.37 8.76L42.37 8.76L42.37 8.76Q42.10 8.97 41.76 9.06L41.76 9.06L41.15 9.10L41.15 9.10Q40.73 9.13 40.01 9.18L40.01 9.18L40.01 9.18Q39.30 9.23 38.33 9.31L38.33 9.31L37.70 11.82L37.70 11.82Q38.58 11.68 39.16 11.59L39.16 11.59L39.16 11.59Q39.75 11.51 40.46 11.45L40.46 11.45L40.46 11.45Q41.01 11.69 41.01 12.10L41.01 12.10L41.01 12.10Q41.01 12.35 40.75 12.59L40.75 12.59L40.75 12.59Q40.50 12.82 40.18 12.92L40.18 12.92L39.38 13.01L39.38 13.01Q38.11 13.15 37.34 13.29L37.34 13.29L37.34 13.29Q37.17 14.06 36.86 15.23L36.86 15.23L36.75 15.67L36.75 15.67Q38.61 15.32 40.35 15.18L40.35 15.18L40.35 15.18Q40.89 15.41 40.89 15.82L40.89 15.82L40.89 15.82Q40.89 16.07 40.64 16.31L40.64 16.31L40.64 16.31Q40.39 16.55 40.07 16.65L40.07 16.65L40.07 16.65Q37.41 16.95 36.32 17.16L36.32 17.16L36.32 17.16Q36.19 17.25 35.77 17.25L35.77 17.25L35.77 17.25Q35.38 17.25 35.08 16.88L35.08 16.88L35.08 16.88Q34.78 16.52 34.78 16.13L34.78 16.13L34.78 16.13Q34.78 15.97 34.82 15.83L34.82 15.83L36.41 9.52L36.37 9.52L36.37 9.52Q36.36 9.37 36.18 9.14L36.18 9.14L36.18 9.14Q36.16 9.11 36.06 8.97L36.06 8.97L36.06 8.97Q35.97 8.82 35.97 8.68L35.97 8.68L35.97 8.68Q35.99 8.27 36.50 8.04L36.50 8.04L36.50 8.04Q37.55 7.90 39.44 7.76L39.44 7.76L39.44 7.76Q41.33 7.63 42.14 7.62L42.14 7.62ZM42.64 9.38L42.64 9.38Q42.64 9.18 42.76 9.07L42.76 9.07L42.76 9.07Q42.88 8.95 43.09 8.85L43.09 8.85L43.09 8.85Q43.16 8.81 43.60 8.60L43.60 8.60L43.60 8.60Q44.04 8.39 44.45 8.27L44.45 8.27L44.45 8.27Q44.58 7.99 44.84 7.81L44.84 7.81L44.84 7.81Q45.09 7.63 45.50 7.63L45.50 7.63L45.50 7.63Q45.74 7.63 45.89 7.72L45.89 7.72L45.89 7.72Q46.05 7.81 46.10 7.95L46.10 7.95L46.10 7.95Q46.62 7.78 47.35 7.78L47.35 7.78L47.35 7.78Q48.26 7.78 48.92 8.17L48.92 8.17L48.92 8.17Q49.59 8.55 49.93 9.23L49.93 9.23L49.93 9.23Q50.27 9.90 50.27 10.74L50.27 10.74L50.27 10.74Q50.27 10.91 50.23 11.20L50.23 11.20L50.23 11.20Q49.66 14.48 45.33 14.48L45.33 14.48L45.33 14.48Q44.94 14.48 44.76 14.46L44.76 14.46L44.58 15.13L44.58 15.13Q44.28 16.21 44.28 16.24L44.28 16.24L44.28 16.24Q44.17 16.73 43.94 17.00L43.94 17.00L43.94 17.00Q43.71 17.26 43.19 17.26L43.19 17.26L43.19 17.26Q42.76 17.26 42.55 17.12L42.55 17.12L42.55 17.12Q42.35 16.97 42.35 16.62L42.35 16.62L42.35 16.62Q42.35 16.46 42.39 16.32L42.39 16.32L44.09 9.79L44.09 9.79Q43.36 10.00 42.98 10.36L42.98 10.36L42.98 10.36Q42.83 10.19 42.73 9.92L42.73 9.92L42.73 9.92Q42.64 9.65 42.64 9.38L42.64 9.38ZM45.05 13.16L45.05 13.16Q45.22 13.17 45.53 13.17L45.53 13.17L45.53 13.17Q46.86 13.17 47.64 12.67L47.64 12.67L47.64 12.67Q48.41 12.17 48.64 11.12L48.64 11.12L48.64 11.12Q48.68 10.88 48.68 10.77L48.68 10.77L48.68 10.77Q48.68 9.98 48.24 9.60L48.24 9.60L48.24 9.60Q47.81 9.21 47.03 9.21L47.03 9.21L47.03 9.21Q46.61 9.21 45.95 9.41L45.95 9.41L45.95 9.41Q45.40 11.58 45.05 13.16L45.05 13.16ZM56.31 15.30L56.31 15.30Q56.85 15.54 56.85 15.95L56.85 15.95L56.85 15.95Q56.85 16.20 56.60 16.44L56.60 16.44L56.60 16.44Q56.35 16.67 56.03 16.77L56.03 16.77L56.03 16.77Q55.26 16.86 54.94 16.87L54.94 16.87L54.94 16.87Q53.06 17.02 52.29 17.16L52.29 17.16L52.29 17.16Q52.16 17.25 51.76 17.25L51.76 17.25L51.76 17.25Q51.37 17.25 51.06 16.88L51.06 16.88L51.06 16.88Q50.76 16.52 50.76 16.13L50.76 16.13L50.76 16.13Q50.76 15.97 50.81 15.83L50.81 15.83L52.60 8.75L52.60 8.75Q52.75 8.13 52.93 7.93L52.93 7.93L52.93 7.93Q53.10 7.73 53.56 7.73L53.56 7.73L53.56 7.73Q53.94 7.73 54.22 7.81L54.22 7.81L54.22 7.81Q54.49 7.90 54.50 8.06L54.50 8.06L54.50 8.06Q54.50 8.46 52.70 15.68L52.70 15.68L52.70 15.68Q53.93 15.47 55.83 15.34L55.83 15.34L56.31 15.30Z"></path></g><!----><!----></svg>